HIERARCHY
ROOT hip
{
	OFFSET 0.000000 0.000000 0.000000 
	CHANNELS 6 Xposition Yposition Zposition Xrotation Zrotation Yrotation
	JOINT abdomen
	{
		OFFSET 0.000000 3.402643 0.000000 
		CHANNELS 3 Xrotation Zrotation Yrotation
		JOINT chest
		{
			OFFSET 0.000000 8.438565 -0.680529 
			CHANNELS 3 Xrotation Zrotation Yrotation
			JOINT neck
			{
				OFFSET 0.000000 10.207942 -0.272212 
				CHANNELS 3 Xrotation Zrotation Yrotation
				JOINT head
				{
					OFFSET 0.000000 3.130431 0.000000 
					CHANNELS 3 Xrotation Zrotation Yrotation
					End Site
					{
						OFFSET 0.000000 3.130435 0.000000 
					}
				}
			}
			JOINT lCollar
			{
				OFFSET 3.470700 6.669187 -0.816635 
				CHANNELS 3 Yrotation Zrotation Xrotation
				JOINT lShldr
				{
					OFFSET 3.198488 0.000000 0.000000 
					CHANNELS 3 Zrotation Yrotation Xrotation
					JOINT lForeArm
					{
						OFFSET 10.139888 0.000000 0.000000 
						CHANNELS 3 Yrotation Zrotation Xrotation
						JOINT lHand
						{
							OFFSET 8.370511 0.000000 0.000000 
							CHANNELS 3 Zrotation Yrotation Xrotation
							End Site
							{
								OFFSET 4.083176 0.000000 0.000000 
							}
						}
					}
				}
			}
			JOINT rCollar
			{
				OFFSET -3.470700 6.669187 -0.816635 
				CHANNELS 3 Yrotation Zrotation Xrotation
				JOINT rShldr
				{
					OFFSET -3.198488 0.000000 0.000000 
					CHANNELS 3 Zrotation Yrotation Xrotation
					JOINT rForeArm
					{
						OFFSET -10.139888 0.000000 0.000000 
						CHANNELS 3 Yrotation Zrotation Xrotation
						JOINT rHand
						{
							OFFSET -8.370511 0.000000 0.000000 
							CHANNELS 3 Zrotation Yrotation Xrotation
							End Site
							{
								OFFSET -4.083176 0.000000 0.000000 
							}
						}
					}
				}
			}
		}
	}
	JOINT lThigh
	{
		OFFSET 5.308129 -1.633274 1.361059 
		CHANNELS 3 Xrotation Zrotation Yrotation
		JOINT lShin
		{
			OFFSET -2.041588 -20.007561 0.000000 
			CHANNELS 3 Xrotation Zrotation Yrotation
			JOINT lFoot
			{
				OFFSET 0.000000 -19.190928 -1.224953 
				CHANNELS 3 Xrotation Yrotation Zrotation
				End Site
				{
					OFFSET 0.000000 -2.449906 4.627600 
				}
			}
		}
	}
	JOINT rThigh
	{
		OFFSET -5.308129 -1.633274 1.361059 
		CHANNELS 3 Xrotation Zrotation Yrotation
		JOINT rShin
		{
			OFFSET 2.041588 -20.007561 0.000000 
			CHANNELS 3 Xrotation Zrotation Yrotation
			JOINT rFoot
			{
				OFFSET 0.000000 -19.190928 -1.224953 
				CHANNELS 3 Xrotation Yrotation Zrotation
				End Site
				{
					OFFSET 0.000000 -2.449906 4.627600 
				}
			}
		}
	}
}
MOTION
Frames: 19
Frame Time: 0.016667
-36.550030 43.521469 14.796448 -1.196040 -15.533900 -13.636000 -12.991100 1.428730 0.336117 24.374500 -7.035290 0.351954 6.745029 5.158855 0.395012 8.464400 4.897910 2.686450 2.000000 -2.000000 0.000000 -83.736504 26.592199 -127.959000 55.547401 -0.292194 0.112790 0.046275 -0.022893 -145.125000 -2.000000 2.000000 0.000000 90.987602 -32.239101 -148.701004 -58.594299 0.286092 0.116692 -0.054749 -0.010602 -133.132996 -56.834377 8.046314 -5.362818 114.099464 -4.490475 4.730661 -25.915421 -12.213931 -7.280637 -7.230423 16.405058 0.712937 25.475040 -2.406712 -2.107638 -16.133598 3.172105 1.349659 
-36.800877 43.636616 14.714666 -1.363430 -14.771400 -12.544500 -12.989800 1.239960 0.439254 24.450899 -6.752100 0.371257 6.836034 5.054709 0.233407 8.484260 4.926940 2.602490 2.000000 -2.000000 0.000000 -83.355003 26.797800 -127.569000 55.781700 -0.291732 0.113105 0.046637 -0.025272 -145.983994 -2.000000 2.000000 0.000000 91.261200 -32.297600 -148.750000 -58.643101 0.285992 0.116753 -0.054530 -0.006506 -134.598007 -55.967178 7.378521 -4.935214 112.721489 -4.309078 4.751012 -25.517244 -10.603465 -6.523058 -7.214666 15.855470 0.369657 25.304832 -2.429083 -2.076557 -16.769407 2.418962 1.106228 
-37.024094 43.719364 14.623223 -1.389100 -14.029200 -11.392300 -13.028000 1.084920 0.494282 24.497601 -6.439940 0.367344 6.986383 4.916502 0.212546 8.552780 4.916610 2.539240 2.000000 -2.000000 0.000000 -83.188904 27.159500 -127.384003 55.938000 -0.291423 0.113314 0.046890 -0.026811 -146.541000 -2.000000 2.000000 0.000000 91.319801 -32.375801 -148.692001 -58.701698 0.285873 0.116826 -0.054423 -0.002789 -135.925995 -55.199467 6.737085 -4.471138 111.156876 -4.108503 4.775907 -25.070673 -9.036153 -5.750418 -7.489686 15.258721 -0.217804 25.403938 -2.430407 -2.104194 -17.646219 1.695823 0.851974 
-37.226082 43.751110 14.518412 -1.345360 -13.424200 -10.138600 -13.057100 0.982055 0.467992 24.505100 -6.137850 0.338176 7.037494 4.738587 0.306295 8.601180 4.848030 2.498920 2.000000 -2.000000 0.000000 -83.208900 27.598801 -127.432999 56.104000 -0.291095 0.113536 0.046968 -0.027269 -146.707001 -2.000000 2.000000 0.000000 91.192703 -32.513100 -148.399002 -58.799301 0.285674 0.116947 -0.054402 -0.001121 -136.520996 -54.524570 6.190187 -4.106501 109.465897 -3.898880 4.798813 -24.625584 -7.619568 -5.070013 -7.907217 14.729165 -1.113056 25.719980 -2.417243 -2.124846 -18.698118 1.032712 0.599045 
-37.415257 43.717701 14.400681 -1.303370 -13.082700 -8.758690 -13.047800 0.972907 0.360924 24.493401 -5.874870 0.288903 6.898671 4.528801 0.484814 8.571010 4.760680 2.450430 2.000000 -2.000000 0.000000 -83.317200 28.018400 -127.657997 56.328602 -0.290649 0.113834 0.047006 -0.027484 -146.785004 -2.000000 2.000000 0.000000 90.928596 -32.689800 -147.960007 -58.955601 0.285354 0.117139 -0.054407 -0.001640 -136.335999 -53.889973 5.874869 -3.849863 107.656509 -3.658907 4.818324 -24.221130 -6.374185 -4.486633 -8.467604 14.418579 -2.238729 26.314985 -2.377026 -2.193053 -19.884148 0.531605 0.349378 
-37.597805 43.611675 14.269358 -1.303310 -13.072900 -7.303820 -12.999900 1.096330 0.194036 24.462200 -5.631510 0.231324 6.595073 4.281205 0.685122 8.472190 4.664160 2.405480 2.000000 -2.000000 0.000000 -83.582001 28.359699 -128.039993 56.553200 -0.290203 0.114130 0.047081 -0.027915 -146.940994 -2.000000 2.000000 0.000000 90.527702 -32.866600 -147.472000 -59.150902 0.284955 0.117379 -0.054431 -0.003254 -135.759995 -53.285492 5.876239 -3.790134 105.642685 -3.409515 4.829040 -23.903305 -5.225092 -3.925700 -9.196012 14.434709 -3.531197 27.330000 -2.352731 -2.266183 -21.191362 0.005243 0.081889 
-37.772381 43.430107 14.121520 -1.365050 -13.355700 -5.809430 -12.923100 1.310930 -0.032577 24.362801 -5.427530 0.156811 6.244568 3.993225 0.928871 8.343710 4.528880 2.345810 2.000000 -2.000000 0.000000 -83.983597 28.593300 -128.518997 56.729000 -0.289852 0.114361 0.047192 -0.028534 -147.166000 -2.000000 2.000000 0.000000 90.000099 -32.974602 -147.160004 -59.307098 0.284634 0.117570 -0.054456 -0.004292 -135.389008 -52.660217 6.118833 -3.815027 103.401749 -3.108752 4.827295 -23.898626 -3.944826 -3.409074 -10.078892 14.730474 -4.804261 28.761673 -2.279943 -2.377721 -22.534782 -0.823115 -0.311694 
-37.933361 43.169613 13.949643 -1.508110 -13.755200 -4.261470 -12.788200 1.591190 -0.331210 24.184999 -5.223940 0.059424 5.868955 3.632651 1.264944 8.234660 4.364170 2.286090 2.000000 -2.000000 0.000000 -84.560997 28.690201 -129.070007 56.807098 -0.289696 0.114463 0.047211 -0.028642 -147.205002 -2.000000 2.000000 0.000000 89.384697 -32.945400 -147.106003 -59.355999 0.284534 0.117629 -0.054466 -0.004675 -135.251999 -52.166328 6.424820 -3.754026 100.473091 -2.732731 4.822814 -23.848825 -2.306874 -2.729538 -11.193242 15.121079 -6.079582 30.702162 -2.212010 -2.516370 -23.853409 -2.110879 -0.991688 
-38.073559 42.827789 13.753276 -1.782650 -14.153600 -2.680500 -12.526100 1.874710 -0.673750 24.036900 -5.029820 -0.061893 5.344256 3.140363 1.784074 8.085900 4.112020 2.217190 2.000000 -2.000000 0.000000 -85.235901 28.562401 -129.606995 56.729000 -0.289852 0.114361 0.046904 -0.026891 -146.570007 -2.000000 2.000000 0.000000 88.759804 -32.690899 -147.423004 -59.463402 0.284314 0.117760 -0.054453 -0.004210 -135.417999 -51.644264 6.680798 -3.421263 96.653442 -2.289476 4.811465 -23.969130 -0.223484 -1.915737 -12.525409 15.410175 -7.332261 33.242435 -2.108928 -2.698243 -25.092785 -3.748494 -1.905400 
-38.198029 42.408356 13.530283 -2.208500 -14.442800 -1.041080 -12.087700 2.152940 -1.053320 23.977100 -4.844910 -0.201953 4.496185 2.510363 2.422260 7.839050 3.801930 2.110560 2.000000 -2.000000 0.000000 -85.978897 28.131800 -130.201996 56.523899 -0.290261 0.114091 0.046323 -0.023218 -145.242004 -2.000000 2.000000 0.000000 88.144600 -32.289600 -147.852005 -59.570801 0.284093 0.117890 -0.054565 -0.007326 -134.304993 -51.048046 6.892771 -2.617322 91.493095 -1.731165 4.800698 -24.218460 2.184380 -0.998607 -14.087474 15.509315 -8.656522 36.376865 -2.027385 -2.895661 -26.153889 -5.551757 -2.946545 
-38.321156 41.934296 13.281680 -2.743650 -14.495800 0.626337 -11.492000 2.411300 -1.424590 23.975700 -4.571960 -0.361441 3.288439 1.777638 3.144404 7.445560 3.463190 1.966590 2.000000 -2.000000 0.000000 -86.751099 27.486300 -130.856003 56.240700 -0.290824 0.113717 0.045575 -0.017359 -143.132996 -2.000000 2.000000 0.000000 87.568604 -31.849100 -148.378006 -59.717300 0.283791 0.118066 -0.055004 -0.004163 -131.940994 -50.412113 7.086133 -1.190649 85.021614 -1.048587 4.690558 -24.836369 4.515972 -0.099215 -15.632409 15.315349 -9.957422 39.601391 -1.881372 -3.102119 -26.986393 -7.287844 -4.003877 
-38.443825 41.437752 12.988702 -3.170610 -14.012600 2.348900 -10.894600 2.558620 -1.786050 23.895599 -4.172620 -0.526489 1.870275 1.036491 3.825718 6.944900 3.124540 1.772550 2.000000 -2.000000 0.000000 -87.454903 26.801701 -131.498993 55.908699 -0.291481 0.113275 0.044902 -0.009293 -140.242004 -2.000000 2.000000 0.000000 87.031601 -31.447599 -148.904007 -59.834499 0.283549 0.118207 -0.056027 -0.013046 -128.748001 -49.642178 7.000327 1.170774 76.744133 -0.225734 4.535049 -25.671682 6.626523 0.656876 -17.425938 14.487591 -11.326428 43.087109 -1.737237 -3.291018 -27.889767 -8.735363 -4.974999 
-38.444275 40.935173 12.596529 -2.936110 -12.074400 4.041090 -10.496700 2.181260 -2.124810 23.600599 -3.832490 -0.750718 0.479164 0.349385 4.460577 6.415450 2.814750 1.593500 2.000000 -2.000000 0.000000 -88.031502 26.166100 -131.985992 55.586399 -0.292117 0.112843 0.044633 -0.000356 -137.048996 -2.000000 2.000000 0.000000 86.563004 -31.075600 -149.352997 -60.010300 0.283186 0.118417 -0.057348 -0.020864 -125.916000 -48.889004 5.671754 5.187333 66.421989 0.668182 4.211522 -26.335951 8.807039 1.407515 -19.904036 11.778821 -12.617628 47.052387 -1.573846 -3.513010 -29.065819 -9.412496 -5.562642 
-38.259926 40.346870 12.114486 -2.273080 -10.314300 5.845310 -10.269800 1.559660 -2.655380 23.122499 -4.302340 -1.061950 -0.821054 -0.283272 5.119584 5.886350 2.504470 1.430460 2.000000 -2.000000 0.000000 -88.402496 25.550501 -132.199997 55.313000 -0.292654 0.112473 0.044810 0.007544 -134.225998 -2.000000 2.000000 0.000000 86.182098 -30.664600 -149.761993 -60.273899 0.282641 0.118731 -0.058319 -0.025494 -124.225998 -48.528313 4.251556 9.524938 55.241962 1.544057 3.705830 -27.113220 10.867611 2.000247 -22.681746 8.703508 -14.326839 50.898521 -1.386097 -3.701336 -30.128593 -9.340264 -5.742290 
-37.982338 39.662582 11.626938 -1.664350 -9.683490 7.789090 -10.018600 1.058140 -3.414160 22.695299 -5.464960 -1.424480 -2.130648 -0.802009 5.818657 5.357650 2.223070 1.322650 2.000000 -2.000000 0.000000 -88.607002 24.886499 -132.179993 55.107899 -0.293056 0.112193 0.045158 0.012975 -132.283005 -2.000000 2.000000 0.000000 85.859596 -30.214800 -150.044006 -60.557201 0.282053 0.119064 -0.059159 -0.029033 -122.928001 -48.804787 3.539796 13.156488 44.953480 2.368979 3.091089 -28.363350 12.599277 2.410244 -25.283546 6.369509 -16.536629 54.500618 -1.153595 -3.885328 -31.010410 -9.087871 -5.743835 
-37.816307 38.935249 11.199345 -1.437460 -9.909050 9.612320 -9.611080 0.941684 -4.127600 22.443300 -6.383290 -1.714610 -3.571127 -1.266711 6.471445 4.780420 1.980560 1.228670 2.000000 -2.000000 0.000000 -88.752602 24.164101 -132.022003 54.922401 -0.293419 0.111940 0.045473 0.006640 -131.052994 -2.000000 2.000000 0.000000 85.595802 -29.833401 -150.335999 -60.830601 0.281484 0.119384 -0.060078 -0.032552 -121.628998 -49.775589 3.602985 15.445476 36.840740 3.213995 2.470395 -30.031303 14.550501 2.844609 -27.404602 5.045093 -18.710016 57.622494 -0.911869 -4.051774 -31.599941 -9.129595 -5.855927 
-37.863937 38.225891 10.837986 -1.598670 -10.425700 11.010800 -9.045970 1.220540 -4.516620 22.345501 -6.491000 -1.853590 -5.180478 -1.653417 6.988720 4.144910 1.806250 1.118430 2.000000 -2.000000 0.000000 -88.868797 23.451599 -131.806000 54.746601 -0.293761 0.111698 0.045838 0.009874 -129.891006 -2.000000 2.000000 0.000000 85.430099 -29.588301 -150.766006 -61.084499 0.280955 0.119678 -0.061242 -0.036600 -120.125000 -50.475319 3.959787 15.437565 29.296041 3.909270 1.906036 -30.905748 17.597134 3.943947 -29.155857 4.511162 -20.220287 60.625546 -0.676136 -4.195551 -32.235378 -9.626284 -6.212591 
-38.050415 37.553165 10.516250 -1.768930 -10.678600 11.939000 -8.461580 1.620900 -4.547360 22.275101 -6.003180 -1.839960 -6.905747 -2.021582 7.319596 3.460770 1.690400 0.961282 2.000000 -2.000000 0.000000 -88.916702 22.826900 -131.580994 54.619598 -0.294009 0.111523 0.046211 0.012694 -128.875000 -2.000000 2.000000 0.000000 85.450203 -29.499201 -151.341995 -61.279800 0.280546 0.119902 -0.062520 -0.040641 -118.611000 -52.433037 4.012022 11.854521 25.938223 5.279456 1.569623 -33.400009 23.195381 6.144309 -30.868814 4.237327 -20.782433 63.381641 -0.470563 -4.300243 -32.884033 -10.488016 -6.847625 
-38.247124 36.905807 10.222867 -1.957420 -10.628700 12.469800 -7.891580 1.896960 -4.361220 22.165600 -5.476370 -1.765150 -8.668760 -2.392644 7.496420 2.737730 1.642730 0.775026 2.000000 -2.000000 0.000000 -88.867104 22.329300 -131.322006 54.570801 -0.294104 0.111455 0.046392 0.013938 -128.425995 -2.000000 2.000000 0.000000 85.665703 -29.400400 -151.917999 -61.289600 0.280526 0.119914 -0.063528 -0.043591 -117.498001 -54.175747 3.879611 7.567306 24.108576 7.433262 1.449902 -35.645290 28.870417 7.950051 -32.463696 4.129624 -20.462204 66.147957 -0.252894 -4.408881 -33.800518 -11.551128 -7.648091 
